<?xml version="1.0" encoding="iso-8859-1"?>
<!-- Generator: Adobe Illustrator 19.0.0, SVG Export Plug-In . SVG Version: 6.00 Build 0)  -->
<svg version="1.1" id="Capa_1" xmlns="http://www.w3.org/2000/svg" xmlns:xlink="http://www.w3.org/1999/xlink" x="0px" y="0px"
	 viewBox="0 0 512 512" style="enable-background:new 0 0 512 512;" xml:space="preserve">
<g>
	<g>
		<path d="M504.485,168.329c4.15,0,7.515-3.365,7.515-7.515v-49.096c0-4.15-3.365-7.515-7.515-7.515H262.79
			c-3.522-18.241-19.599-32.063-38.853-32.063H39.577c-4.15,0-7.515,3.365-7.515,7.515v24.548H7.515
			c-4.15,0-7.515,3.365-7.515,7.515v320.626c0,4.15,3.365,7.515,7.515,7.515h496.971c4.15,0,7.515-3.365,7.515-7.515V195.549
			c0-4.15-3.365-7.515-7.515-7.515c-4.15,0-7.515,3.365-7.515,7.515V424.83H263.515V119.233h121.237v72.642
			c0,5.881,6.778,9.525,11.683,6.252l19.879-13.253l19.879,13.253c4.91,3.274,11.683-0.378,11.683-6.252v-72.642h49.096v41.581
			C496.971,164.964,500.335,168.329,504.485,168.329z M15.029,424.83V119.233h17.033v281.049c0,4.15,3.365,7.515,7.515,7.515h184.36
			c10.915,0,20.184,7.163,23.367,17.033H15.029z M248.485,401.321c-6.751-5.353-15.283-8.554-24.548-8.554H47.092V87.17h176.845
			c13.535,0,24.548,11.013,24.548,24.548V401.321z M432.845,177.833l-12.364-8.243c-1.263-0.842-2.715-1.262-4.168-1.262
			c-1.453,0-2.906,0.421-4.168,1.262l-12.364,8.243v-58.6h33.065V177.833z"/>
	</g>
</g>
<g>
	<g>
		<path d="M227.807,208.263c-6.164-6.165-15.293-8.901-25.04-7.509c-9.093,1.299-18.065,5.979-25.262,13.177
			c-13.135,13.135-16.924,31.435-10.174,44.181l-17.429,17.429l-19.615-19.615c7.357-12.139,5.805-28.202-4.669-38.677
			l-22.671-22.671c-2.935-2.935-7.693-2.935-10.627,0c-2.935,2.935-2.935,7.693,0,10.627l17.358,17.358l-6.376,6.376l-17.358-17.358
			c-2.935-2.935-7.693-2.935-10.627,0c-2.935,2.935-2.935,7.693,0,10.627l17.358,17.358l-6.376,6.376L68.94,228.584
			c-2.935-2.935-7.693-2.935-10.627,0c-2.935,2.935-2.935,7.693,0,10.627l22.671,22.671c6.153,6.153,14.235,9.229,22.318,9.229
			c5.677,0,11.351-1.524,16.359-4.56l19.615,19.615l-41.121,41.121c-2.736,2.735-2.918,7.255-0.4,10.196
			c2.81,3.281,7.97,3.488,11.026,0.431l41.121-41.121l44.44,44.44c3.057,3.057,8.216,2.851,11.027-0.431
			c2.519-2.941,2.337-7.461-0.4-10.196l-44.44-44.44l17.427-17.427c4.126,2.198,8.904,3.358,13.981,3.358
			c1.62,0,3.27-0.117,4.939-0.356c9.093-1.299,18.064-5.979,25.262-13.177s11.877-16.17,13.177-25.262
			C236.708,223.554,233.972,214.427,227.807,208.263z M114.991,251.256c-4.533,4.533-11.059,5.864-16.777,4.024l10.395-10.395
			c0.002-0.002,0.003-0.003,0.005-0.005s0.003-0.003,0.005-0.005l10.394-10.394C120.854,240.198,119.522,246.724,114.991,251.256z
			 M220.235,232.363c-1.167,5.914-4.495,11.347-8.724,15.575c-4.228,4.228-9.662,7.556-15.575,8.724
			c-4.634,0.915-9.973,0.443-13.472-3.055c-6.336-6.338-3.741-19.641,5.668-29.05c3.988-3.988,9.023-7.147,14.534-8.493
			c4.899-1.196,10.748-0.942,14.514,2.826C220.679,222.389,221.151,227.729,220.235,232.363z"/>
	</g>
</g>
<g>
	<g>
		<path d="M368.641,232.454h-64.547c-4.15,0-7.515,3.365-7.515,7.515s3.365,7.515,7.515,7.515h64.547
			c4.15,0,7.515-3.365,7.515-7.515S372.791,232.454,368.641,232.454z"/>
	</g>
</g>
<g>
	<g>
		<path d="M440.36,232.454h-43.031c-4.15,0-7.515,3.365-7.515,7.515s3.365,7.515,7.515,7.515h43.031c4.15,0,7.515-3.365,7.515-7.515
			S444.51,232.454,440.36,232.454z"/>
	</g>
</g>
<g>
	<g>
		<path d="M424.329,272.532H304.094c-4.15,0-7.515,3.365-7.515,7.515c0,4.15,3.365,7.515,7.515,7.515h120.235
			c4.15,0,7.515-3.365,7.515-7.515C431.843,275.897,428.479,272.532,424.329,272.532z"/>
	</g>
</g>
<g>
	<g>
		<path d="M339.954,312.611h-35.86c-4.15,0-7.515,3.365-7.515,7.515s3.365,7.515,7.515,7.515h35.86c4.15,0,7.515-3.365,7.515-7.515
			S344.104,312.611,339.954,312.611z"/>
	</g>
</g>
<g>
	<g>
		<path d="M440.36,312.611h-71.719c-4.15,0-7.515,3.365-7.515,7.515s3.365,7.515,7.515,7.515h71.719c4.15,0,7.515-3.365,7.515-7.515
			S444.51,312.611,440.36,312.611z"/>
	</g>
</g>
<g>
	<g>
		<path d="M382.985,352.689h-78.891c-4.15,0-7.515,3.365-7.515,7.515c0,4.15,3.365,7.515,7.515,7.515h78.891
			c4.15,0,7.515-3.365,7.515-7.515C390.5,356.053,387.135,352.689,382.985,352.689z"/>
	</g>
</g>
<g>
	<g>
		<path d="M440.36,352.689h-28.687c-4.15,0-7.515,3.365-7.515,7.515c0,4.15,3.365,7.515,7.515,7.515h28.687
			c4.15,0,7.515-3.365,7.515-7.515C447.875,356.053,444.51,352.689,440.36,352.689z"/>
	</g>
</g>
<g>
	<g>
		<path d="M199.89,120.235H87.671c-4.15,0-7.515,3.365-7.515,7.515s3.365,7.515,7.515,7.515H199.89c4.15,0,7.515-3.365,7.515-7.515
			S204.041,120.235,199.89,120.235z"/>
	</g>
</g>
<g>
	<g>
		<path d="M127.75,152.297H87.671c-4.15,0-7.515,3.365-7.515,7.515s3.365,7.515,7.515,7.515h40.078c4.15,0,7.515-3.365,7.515-7.515
			S131.9,152.297,127.75,152.297z"/>
	</g>
</g>
<g>
	<g>
		<path d="M199.89,152.297h-40.078c-4.15,0-7.515,3.365-7.515,7.515s3.365,7.515,7.515,7.515h40.078c4.15,0,7.515-3.365,7.515-7.515
			S204.041,152.297,199.89,152.297z"/>
	</g>
</g>
<g>
</g>
<g>
</g>
<g>
</g>
<g>
</g>
<g>
</g>
<g>
</g>
<g>
</g>
<g>
</g>
<g>
</g>
<g>
</g>
<g>
</g>
<g>
</g>
<g>
</g>
<g>
</g>
<g>
</g>
</svg>
